<?xml version="1.0" encoding="iso-8859-1"?>
<!-- Generator: Adobe Illustrator 19.1.0, SVG Export Plug-In . SVG Version: 6.00 Build 0)  -->
<svg version="1.1" id="Capa_1" xmlns="http://www.w3.org/2000/svg" xmlns:xlink="http://www.w3.org/1999/xlink" x="0px" y="0px"
	 viewBox="0 0 64.5 64.5" style="enable-background:new 0 0 64.5 64.5;" xml:space="preserve">
<g>
	<g id="group-63svg">
		<path id="path-1_58_" style="fill:#FF917B;" d="M22.137,18.245L48.044,4.5l-5.309,16.016l0,0"/>
		<path id="path-2_58_" style="fill:#FF917B;" d="M32.178,59.649L51.903,64.5L42.59,54.172l0,0"/>
		<path id="path-3_58_" style="fill:#53ECF4;" d="M47.057,26.401c-17.533-26.055-32.684,0.138-32.684,0.138
			c-4.914,6.068-9.768,10.695-9.768,10.695s5.106,4.684,10.02,10.752c0,0,14.857,26.22,32.39,0.165c0,0,6.318-9.708,16.318,0.165
			V37.234v-10.97C53.333,36.137,47.057,26.401,47.057,26.401z"/>
		<path id="path-4_58_" d="M29.091,58.189c-10.043,0-16.898-11.043-17.671-12.345C6.658,39.977,1.7,35.383,1.65,35.337
			c-0.306-0.283-0.48-0.679-0.482-1.095s0.169-0.814,0.471-1.1c0.049-0.044,4.859-4.591,9.625-10.464
			c0.769-1.281,7.7-12.321,17.795-12.321c6.157,0,12.042,4.108,17.492,12.207c0.023,0.033,2.517,3.624,6.485,3.624
			c2.456,0,5.061-1.343,7.744-3.991c0.429-0.426,1.072-0.551,1.632-0.316c0.558,0.232,0.921,0.779,0.921,1.383v22.053
			c0,0.605-0.363,1.151-0.921,1.384c-0.56,0.232-1.203,0.107-1.632-0.316c-2.688-2.655-5.3-4-7.766-4
			c-3.969,0-6.469,3.575-6.493,3.61C41.077,54.084,35.212,58.189,29.091,58.189z M4.831,34.224c1.792,1.743,5.411,5.397,8.991,9.819
			c0.049,0.06,0.094,0.126,0.133,0.194c0.064,0.109,6.432,10.952,15.136,10.952c5.061,0,10.089-3.659,14.945-10.875
			c0.137-0.203,3.391-4.93,8.978-4.93c2.431,0,4.883,0.898,7.319,2.674V26.521c-2.43,1.772-4.875,2.667-7.297,2.667
			c-5.592,0-8.839-4.75-8.975-4.952c-4.858-7.219-9.905-10.879-15.002-10.879c-8.758,0-15.202,10.828-15.266,10.938
			c-0.038,0.065-0.082,0.129-0.129,0.187C10.102,28.881,6.582,32.492,4.831,34.224z"/>
		<path id="path-5_58_" d="M28.096,43.069c-0.229,0-0.462-0.054-0.68-0.164c-0.738-0.376-1.032-1.279-0.656-2.018
			c4.236-8.32,0.211-15.515,0.038-15.818c-0.411-0.717-0.166-1.634,0.549-2.047c0.718-0.413,1.631-0.171,2.046,0.542
			c0.208,0.358,5.037,8.869,0.041,18.685C29.169,42.769,28.642,43.069,28.096,43.069z"/>
		<path id="path-6_51_" d="M34.957,43.069c-0.229,0-0.461-0.054-0.679-0.164c-0.739-0.376-1.032-1.279-0.657-2.018
			c4.237-8.32,0.212-15.515,0.038-15.818c-0.411-0.717-0.166-1.634,0.55-2.047s1.631-0.171,2.046,0.542
			c0.208,0.358,5.037,8.869,0.04,18.685C36.03,42.769,35.503,43.069,34.957,43.069z"/>
		<path id="path-7_42_" d="M40.735,19.017c-0.157,0-0.316-0.025-0.473-0.077c-0.786-0.26-1.212-1.109-0.951-1.896l4.133-12.467
			L20.841,16.57c-0.735,0.387-1.641,0.109-2.029-0.622c-0.388-0.732-0.11-1.64,0.622-2.028L45.341,0.174
			c0.542-0.286,1.204-0.215,1.671,0.179c0.468,0.396,0.649,1.036,0.456,1.618l-5.31,16.017
			C41.949,18.618,41.364,19.017,40.735,19.017z"/>
		<path id="path-8_36_" d="M49.903,62.999c-0.119,0-0.239-0.014-0.359-0.043L29.82,58.105c-0.804-0.197-1.296-1.01-1.098-1.814
			c0.197-0.805,1.009-1.297,1.815-1.098l14.981,3.684l-6.042-6.701c-0.555-0.616-0.506-1.564,0.11-2.12
			c0.615-0.553,1.564-0.504,2.118,0.111l9.313,10.328c0.441,0.489,0.511,1.209,0.173,1.774
			C50.915,62.729,50.422,62.999,49.903,62.999z"/>
		<path id="path-9_24_" d="M17.791,37.719c-2.836,0-5.143-2.207-5.143-4.919c0-2.713,2.307-4.919,5.143-4.919
			s5.143,2.206,5.143,4.919C22.934,35.512,20.627,37.719,17.791,37.719z M17.791,30.881c-1.182,0-2.143,0.86-2.143,1.919
			c0,1.058,0.961,1.919,2.143,1.919c1.181,0,2.143-0.861,2.143-1.919C19.934,31.741,18.972,30.881,17.791,30.881z"/>
	</g>
</g>
<g>
</g>
<g>
</g>
<g>
</g>
<g>
</g>
<g>
</g>
<g>
</g>
<g>
</g>
<g>
</g>
<g>
</g>
<g>
</g>
<g>
</g>
<g>
</g>
<g>
</g>
<g>
</g>
<g>
</g>
</svg>
