<?xml version="1.0" encoding="iso-8859-1"?>
<!-- Generator: Adobe Illustrator 19.1.0, SVG Export Plug-In . SVG Version: 6.00 Build 0)  -->
<svg version="1.1" id="Capa_1" xmlns="http://www.w3.org/2000/svg" xmlns:xlink="http://www.w3.org/1999/xlink" x="0px" y="0px"
	 viewBox="0 0 64 64" style="enable-background:new 0 0 64 64;" xml:space="preserve">
<g>
	<g id="group-79svg">
		<path id="path-1_75_" style="fill:#EDC951;" d="M46.105,25H35.732H24.394l-4.635,33.964C19.404,61.56,21.422,64,24.045,64h11.687
			h10.724c2.621,0,4.639-2.44,4.284-5.036L46.105,25z"/>
		<path id="path-2_75_" style="fill:#EDC951;" d="M39.058,11.552C38.458,11.251,37.796,11,37.124,11H35.25h-1.874
			c-0.671,0-1.333,0.251-1.934,0.552l-4.661,2.014c-1.465,0.733-3.117,2.278-3.117,3.915V20H35.25h9.414v-2.519
			c0-1.637-0.567-3.182-2.032-3.915L39.058,11.552z"/>
		<path id="path-3_75_" d="M41.456,63H19.045c-1.65,0-3.231-0.729-4.34-2c-1.143-1.311-1.664-3.037-1.432-4.74l4.635-33.963
			C18.009,21.555,18.644,21,19.394,21h21.711c0.75,0,1.385,0.555,1.486,1.297l4.635,33.965c0.233,1.701-0.289,3.428-1.431,4.738
			C44.685,62.271,43.104,63,41.456,63z M20.704,24l-4.458,32.666c-0.116,0.845,0.146,1.705,0.719,2.361
			C17.512,59.654,18.251,60,19.045,60h22.411c0.793,0,1.531-0.346,2.078-0.973c0.573-0.656,0.835-1.516,0.72-2.359L39.796,24H20.704
			z"/>
		<path id="path-4_75_" d="M40.164,19h-21c-0.828,0-1.5-0.672-1.5-1.5v-2.019c0-2.32,1.859-4.463,3.696-5.381l4.428-2.148
			c0.109-0.055,0.237-0.129,0.369-0.203C26.744,7.415,27.474,7,28.376,7h3.748c0.902,0,1.632,0.416,2.22,0.749
			c0.131,0.075,0.259,0.148,0.385,0.211l3.886,2.172c1.828,0.912,3.049,3.024,3.049,5.349V17.5C41.664,18.328,40.992,19,40.164,19z
			 M20.664,16h18v-0.519c0-1.18-0.584-2.264-1.452-2.698l-3.886-2.172c-0.11-0.052-0.285-0.152-0.464-0.254
			C32.635,10.228,32.256,10,32.116,10h-3.74c-0.132,0-0.511,0.228-0.737,0.357c-0.179,0.102-0.355,0.201-0.526,0.286l-4.428,2.148
			c-1.088,0.544-2.021,1.779-2.021,2.69V16z"/>
		<path id="path-5_73_" d="M29.664,10c-1.105,0-2-0.896-2-2V2c0-1.105,0.895-2,2-2c1.104,0,2,0.895,2,2v6
			C31.664,9.104,30.768,10,29.664,10z"/>
		<path id="path-6_65_" d="M38.104,52.541c-0.717,0-1.35-0.516-1.476-1.246L33.311,32h-4.647c-0.828,0-1.5-0.672-1.5-1.5
			s0.672-1.5,1.5-1.5h5.911c0.73,0,1.354,0.525,1.478,1.246l3.532,20.541c0.14,0.816-0.409,1.592-1.225,1.732
			C38.274,52.533,38.189,52.541,38.104,52.541z"/>
	</g>
</g>
<g>
</g>
<g>
</g>
<g>
</g>
<g>
</g>
<g>
</g>
<g>
</g>
<g>
</g>
<g>
</g>
<g>
</g>
<g>
</g>
<g>
</g>
<g>
</g>
<g>
</g>
<g>
</g>
<g>
</g>
</svg>
