<?xml version="1.0" encoding="iso-8859-1"?>
<!-- Generator: Adobe Illustrator 19.1.0, SVG Export Plug-In . SVG Version: 6.00 Build 0)  -->
<svg version="1.1" id="Capa_1" xmlns="http://www.w3.org/2000/svg" xmlns:xlink="http://www.w3.org/1999/xlink" x="0px" y="0px"
	 viewBox="0 0 66.503 66.503" style="enable-background:new 0 0 66.503 66.503;" xml:space="preserve">
<g>
	<g id="group-56svg">
		<path id="path-1_50_" style="fill:#99746A;" d="M7.462,38.421c0,0-5.795,20.786,11.102,20.786c16.896,0,40.811,0,40.811,0
			s16.037,3.119,0-23.108l0,0"/>
		<path id="path-2_50_" style="fill:#E56A77;" d="M30.937,45.877c0,0-31.752,6.492-21.588-19.113
			C19.513,1.16,43.63,15.905,43.63,15.905s26.349,21.248,10.278,26.558C47.138,44.7,30.937,45.877,30.937,45.877z"/>
		<path id="path-3_50_" style="fill:#FFFFFF;" d="M30.071,38.777c0,0-19.127,3.911-13.005-11.515
			c6.124-15.425,20.652-6.541,20.652-6.541s15.874,12.8,6.192,15.999C39.832,38.068,30.071,38.777,30.071,38.777z"/>
		<path id="path-4_50_" style="fill:#E56A77;" d="M29.971,33.543c0,0-6.795,1.389-4.62-4.09s7.336-2.324,7.336-2.324
			s5.638,4.547,2.199,5.683C33.438,33.291,29.971,33.543,29.971,33.543z"/>
		<path id="path-5_50_" d="M20.265,37.719c-4.652,0-7.997-1.306-9.674-3.775c-1.667-2.456-1.64-5.899,0.081-10.235
			c3.292-8.293,8.928-10.034,13.075-10.034c5.172,0,9.569,2.653,9.754,2.766c0.055,0.034,0.108,0.071,0.159,0.112
			c1.812,1.461,10.802,9.031,9.8,14.542c-0.239,1.311-1.14,3.078-4.08,4.049c-4.039,1.335-13.04,2.042-14.109,2.122
			C24.795,37.356,22.733,37.719,20.265,37.719z M23.747,16.675c-4.681,0-8.142,2.739-10.286,8.141
			c-1.332,3.356-1.463,5.86-0.388,7.443c1.38,2.033,4.673,2.46,7.192,2.46c2.46,0,4.486-0.408,4.506-0.413
			c0.063-0.012,0.128-0.021,0.192-0.026c0.096-0.007,9.622-0.711,13.476-1.984c1.865-0.617,2.019-1.46,2.069-1.737
			c0.502-2.765-4.725-8.419-8.646-11.601C31.308,18.639,27.724,16.675,23.747,16.675z"/>
		<path id="path-6_44_" d="M23.264,32.2c-2.511,0-3.69-0.96-4.237-1.765c-0.783-1.154-0.807-2.679-0.07-4.535
			c1.442-3.633,4.092-4.175,5.544-4.175c2.07,0,3.78,1.009,3.968,1.124c0.056,0.034,0.109,0.072,0.16,0.113
			c1.293,1.042,4.255,3.724,3.825,6.091c-0.108,0.592-0.523,1.663-2.097,2.183c-1.493,0.494-4.544,0.747-5.19,0.796
			C24.893,32.082,24.15,32.2,23.264,32.2z M24.501,24.725c-0.794,0-1.944,0.237-2.756,2.281c-0.386,0.974-0.375,1.539-0.236,1.744
			c0.141,0.208,0.685,0.45,1.755,0.45c0.761,0,1.404-0.127,1.41-0.128c0.06-0.012,0.126-0.021,0.188-0.025
			c1.27-0.093,3.629-0.353,4.554-0.659c0.014-0.005,0.027-0.009,0.04-0.014c-0.235-0.651-1.397-1.995-2.621-3.004
			C26.568,25.225,25.568,24.725,24.501,24.725z"/>
		<path id="path-7_36_" d="M17.959,45.111c-7.38,0-12.65-2.016-15.241-5.832c-2.571-3.789-2.492-9.194,0.237-16.068
			C8.214,9.962,17.16,7.18,23.739,7.18c8.308,0,15.377,4.264,15.673,4.446c0.056,0.033,0.109,0.071,0.159,0.112
			c1.798,1.449,17.511,14.411,15.915,23.192c-0.505,2.781-2.56,4.785-6.107,5.958c-6.673,2.204-21.777,3.37-23.241,3.478
			C25.507,44.488,22.09,45.111,17.959,45.111z M23.739,10.18c-8.217,0-14.272,4.757-17.996,14.138
			c-2.34,5.894-2.522,10.36-0.543,13.276c2.536,3.734,8.338,4.517,12.759,4.517c4.165,0,7.643-0.697,7.678-0.704
			c0.063-0.012,0.127-0.021,0.191-0.026c0.16-0.012,16.095-1.189,22.609-3.342c2.459-0.812,3.799-2.005,4.098-3.645
			c1.079-5.937-10.21-16.563-14.763-20.254C37.01,13.697,30.747,10.18,23.739,10.18z"/>
		<path id="path-8_31_" d="M55.878,57.332c-0.758,0-1.355-0.079-1.634-0.125h-40.68c-4.814,0-8.431-1.553-10.747-4.614
			c-4.919-6.498-1.929-17.37-1.799-17.829c0.225-0.798,1.054-1.258,1.849-1.036c0.798,0.224,1.262,1.052,1.038,1.849
			c-0.027,0.099-2.713,9.908,1.308,15.211c1.72,2.269,4.529,3.419,8.351,3.419h40.811c0.1,0,0.199,0.01,0.297,0.029
			c0.028,0.006,3.343,0.625,4.676-1.294c1.118-1.612,1.792-6.278-6.253-19.435c-0.432-0.708-0.21-1.631,0.497-2.063
			c0.708-0.433,1.631-0.21,2.062,0.497c6.92,11.317,8.93,18.752,6.145,22.729C60.232,56.909,57.625,57.332,55.878,57.332z"/>
	</g>
</g>
<g>
</g>
<g>
</g>
<g>
</g>
<g>
</g>
<g>
</g>
<g>
</g>
<g>
</g>
<g>
</g>
<g>
</g>
<g>
</g>
<g>
</g>
<g>
</g>
<g>
</g>
<g>
</g>
<g>
</g>
</svg>
