<?xml version="1.0" encoding="iso-8859-1"?>
<!-- Generator: Adobe Illustrator 19.1.0, SVG Export Plug-In . SVG Version: 6.00 Build 0)  -->
<svg version="1.1" id="Capa_1" xmlns="http://www.w3.org/2000/svg" xmlns:xlink="http://www.w3.org/1999/xlink" x="0px" y="0px"
	 viewBox="0 0 64.975 64.975" style="enable-background:new 0 0 64.975 64.975;" xml:space="preserve">
<g>
	<g id="group-74svg">
		<path id="path-1_70_" style="fill:#FF917B;" d="M34.987,4.48l-20.5,21.344v39.151h21.365h19.635V25.824L34.987,4.48z"/>
		<path id="path-2_70_" style="fill:#EDC951;" d="M35.853,13.661L20.512,28.975h30.682L35.853,13.661z"/>
		<path id="path-3_70_" d="M47.194,26.975H16.512c-0.607,0-1.154-0.366-1.386-0.927c-0.232-0.561-0.103-1.206,0.326-1.635
			L30.793,9.1c0.585-0.584,1.534-0.584,2.119,0l15.341,15.313c0.43,0.429,0.559,1.074,0.327,1.635
			C48.347,26.609,47.799,26.975,47.194,26.975z M20.138,23.975h23.43L31.853,12.281L20.138,23.975z"/>
		<path id="path-4_70_" d="M51.987,62.975h-41c-0.829,0-1.5-0.672-1.5-1.5V22.824c0-0.386,0.15-0.76,0.418-1.039l20.5-21.344
			c0.566-0.588,1.598-0.588,2.164,0l20.5,21.344c0.268,0.279,0.418,0.653,0.418,1.039v38.651
			C53.487,62.303,52.816,62.975,51.987,62.975z M12.488,59.975h38V23.428l-19-19.781l-19,19.781V59.975z"/>
		<path id="path-5_68_" d="M21.267,52.582l-1.943-7.724v8.369c0,0.462-0.104,0.811-0.31,1.043c-0.207,0.23-0.482,0.347-0.823,0.347
			c-0.331,0-0.601-0.115-0.811-0.344c-0.209-0.228-0.314-0.578-0.314-1.046v-9.594c0-0.529,0.138-0.885,0.414-1.07
			c0.275-0.186,0.647-0.278,1.116-0.278h0.761c0.458,0,0.79,0.041,0.996,0.125c0.207,0.082,0.36,0.231,0.46,0.446
			c0.099,0.214,0.212,0.566,0.338,1.05l1.762,6.641l1.761-6.641c0.127-0.484,0.241-0.836,0.34-1.05
			c0.099-0.215,0.252-0.364,0.459-0.446c0.206-0.084,0.538-0.125,0.996-0.125h0.761c0.469,0,0.841,0.092,1.117,0.278
			c0.275,0.185,0.413,0.541,0.413,1.07v9.594c0,0.462-0.103,0.811-0.31,1.043c-0.207,0.23-0.484,0.347-0.831,0.347
			c-0.325,0-0.593-0.117-0.802-0.347c-0.21-0.232-0.314-0.581-0.314-1.043v-8.369l-1.944,7.724c-0.127,0.502-0.23,0.869-0.31,1.104
			c-0.08,0.234-0.228,0.449-0.443,0.64c-0.215,0.194-0.512,0.291-0.893,0.291c-0.287,0-0.529-0.062-0.728-0.187
			c-0.198-0.123-0.353-0.282-0.463-0.475c-0.11-0.193-0.197-0.406-0.26-0.64C21.399,53.08,21.335,52.836,21.267,52.582z"/>
		<path id="path-6_61_" d="M32.268,44.387c-0.315,0-0.584-0.098-0.807-0.291c-0.223-0.192-0.335-0.465-0.335-0.819
			c0-0.318,0.114-0.582,0.343-0.789c0.229-0.207,0.495-0.31,0.799-0.31c0.292,0,0.551,0.094,0.777,0.281
			c0.226,0.188,0.339,0.461,0.339,0.818c0,0.348-0.11,0.62-0.331,0.815C32.833,44.289,32.569,44.387,32.268,44.387z M33.383,46.719
			v6.525c0,0.451-0.107,0.794-0.322,1.026c-0.216,0.23-0.489,0.347-0.819,0.347c-0.331,0-0.6-0.119-0.807-0.355
			c-0.206-0.238-0.31-0.576-0.31-1.018v-6.459c0-0.447,0.104-0.783,0.31-1.01c0.207-0.226,0.476-0.339,0.807-0.339
			c0.33,0,0.603,0.113,0.819,0.339C33.277,46.002,33.383,46.317,33.383,46.719z"/>
		<path id="path-7_51_" d="M35.715,53.244v-9.793c0-0.451,0.101-0.793,0.302-1.025c0.201-0.231,0.473-0.348,0.815-0.348
			s0.617,0.115,0.827,0.344c0.21,0.228,0.314,0.572,0.314,1.029v9.793c0,0.457-0.106,0.801-0.318,1.029
			c-0.212,0.229-0.487,0.344-0.823,0.344c-0.331,0-0.599-0.119-0.806-0.355C35.819,54.024,35.715,53.686,35.715,53.244z"/>
		<path id="path-8_42_" d="M45.93,53.582l-1.993-3.275l-1.224,1.158v1.795c0,0.435-0.114,0.771-0.343,1.006
			c-0.229,0.234-0.492,0.351-0.79,0.351c-0.347,0-0.62-0.117-0.819-0.347c-0.198-0.232-0.297-0.575-0.297-1.026v-9.627
			c0-0.502,0.096-0.883,0.289-1.146c0.193-0.262,0.468-0.393,0.827-0.393c0.347,0,0.623,0.119,0.827,0.356
			c0.204,0.238,0.306,0.588,0.306,1.05v5.475l2.539-2.662c0.314-0.332,0.554-0.557,0.719-0.678c0.166-0.121,0.367-0.183,0.604-0.183
			c0.282,0,0.516,0.089,0.703,0.27c0.188,0.179,0.281,0.403,0.281,0.673c0,0.332-0.305,0.771-0.918,1.324l-1.199,1.1l2.316,3.638
			c0.171,0.27,0.293,0.475,0.368,0.616c0.074,0.14,0.112,0.275,0.112,0.402c0,0.357-0.098,0.641-0.294,0.848
			c-0.196,0.207-0.454,0.31-0.773,0.31c-0.276,0-0.488-0.074-0.637-0.224C46.384,54.244,46.183,53.975,45.93,53.582z"/>
	</g>
</g>
<g>
</g>
<g>
</g>
<g>
</g>
<g>
</g>
<g>
</g>
<g>
</g>
<g>
</g>
<g>
</g>
<g>
</g>
<g>
</g>
<g>
</g>
<g>
</g>
<g>
</g>
<g>
</g>
<g>
</g>
</svg>
